PathFileType	4	(X/Y/Z)	s09c0401.trc
DataRate	CameraRate	NumFrames	NumMarkers	Units	OrigDataRate	OrigDataStartFrame	OrigNumFrames
200	200	4	50	mm	200	1250	2000
Frame#	Time	racr			lacr			c7			jug			rlel			rdr			llel			ldr			s2			lic			ric			lasi			rasi			rpsi			lpsi			rgt			lgt			rth1			rth2			rth3			rth4			rlfc			rmfc			rsh1			rsh2			rsh3			rsh4			rlmal			rmmal			rcal			rtoe			rmt5			lth1			lth2			lth4			lth3			llfc			lmfc			llmal			lmmal			lcal			lmt5			lsh1			lsh2			lsh3			lsh4			ltoe			SBIKE			LBIKE			RBIKE			
		X1	Y1	Z1	X2	Y2	Z2	X3	Y3	Z3	X4	Y4	Z4	X5	Y5	Z5	X6	Y6	Z6	X7	Y7	Z7	X8	Y8	Z8	X9	Y9	Z9	X10	Y10	Z10	X11	Y11	Z11	X12	Y12	Z12	X13	Y13	Z13	X14	Y14	Z14	X15	Y15	Z15	X16	Y16	Z16	X17	Y17	Z17	X18	Y18	Z18	X19	Y19	Z19	X20	Y20	Z20	X21	Y21	Z21	X22	Y22	Z22	X23	Y23	Z23	X24	Y24	Z24	X25	Y25	Z25	X26	Y26	Z26	X27	Y27	Z27	X28	Y28	Z28	X29	Y29	Z29	X30	Y30	Z30	X31	Y31	Z31	X32	Y32	Z32	X33	Y33	Z33	X34	Y34	Z34	X35	Y35	Z35	X36	Y36	Z36	X37	Y37	Z37	X38	Y38	Z38	X39	Y39	Z39	X40	Y40	Z40	X41	Y41	Z41	X42	Y42	Z42	X43	Y43	Z43	X44	Y44	Z44	X45	Y45	Z45	X46	Y46	Z46	X47	Y47	Z47	X48	Y48	Z48	X49	Y49	Z49	X50	Y50	Z50	
1250	6.2500	702.616330	1261.848592	-24.705617	735.030040	1223.948051	-392.897758	718.142312	1334.668273	-213.417213	708.102625	1194.905718	-207.301591	609.896788	1052.380389	94.002591	646.276110	860.762231	-52.634864	573.591600	1067.256247	-560.049739	624.760728	861.616332	-437.941936	226.351798	1172.848608	-236.717216	371.753637	1153.140966	-372.802992	355.941009	1137.814121	-77.800546	396.880010	1085.917361	-349.857836	390.706447	1076.958535	-101.052591	260.112886	1193.400429	-171.726489	263.781058	1209.330848	-279.685735	295.601187	990.844491	-53.649932	331.649686	1038.134069	-423.826850	342.997899	860.436981	-54.288130	380.423793	782.880685	-68.070608	371.820541	695.218978	-82.049551	410.387212	790.066531	-88.437911	383.813783	605.849475	-112.804617	362.969397	585.422740	-207.207961	336.069878	515.689824	-78.303398	340.222444	426.583905	-90.089155	299.228827	349.182087	-88.721287	364.706399	424.137758	-121.241660	268.203538	252.216829	-87.975728	275.929257	259.297323	-161.862186	190.634736	239.789496	-124.105314	436.007035	141.292771	-126.511848	352.577850	153.485035	-61.959141	430.542851	941.110583	-417.746631	504.617092	903.362996	-402.951142	525.982581	927.313105	-383.055591	554.187714	828.124979	-400.439686	587.255564	738.869457	-378.597175	580.934276	722.243534	-278.826662	246.516108	602.209842	-407.507352	261.690246	599.063869	-333.183783	163.881575	626.609268	-370.377913	260.516221	482.440433	-431.184108	498.479476	700.166016	-404.780488	426.775873	651.017739	-398.459186	338.526362	642.320663	-404.853872	435.703366	628.845052	-367.257286	339.205357	434.434757	-361.062684	-64.606158	853.245091	-240.193156	21.124036	83.973592	-442.096071	21.140283	83.924247	-43.919439	
1251	6.2550	702.855220	1263.118811	-27.392242	734.514183	1224.461197	-395.970989	718.163557	1335.393086	-216.557038	708.489362	1195.688413	-210.235247	609.636649	1053.703382	91.921114	646.742132	860.680622	-53.254658	572.942286	1066.434091	-561.809960	624.801971	861.988804	-437.922888	226.319354	1172.060541	-233.913708	370.117371	1153.580682	-372.272929	357.845136	1135.986091	-77.554974	396.018664	1086.259392	-350.058037	391.921941	1075.387742	-101.957742	260.997148	1192.179645	-169.431032	263.152464	1208.861203	-277.043912	296.792270	989.115460	-51.910597	330.235082	1038.870562	-423.089064	341.030898	859.509550	-52.989784	376.339110	780.908251	-66.945272	365.738493	693.405273	-80.449516	406.430788	787.324575	-87.340259	376.475492	603.958556	-111.889151	355.515946	583.564798	-206.867291	328.519644	513.893528	-77.800249	332.611290	424.923984	-89.428024	291.437997	347.489137	-88.260116	357.177513	422.506198	-120.607614	260.464267	250.908662	-87.756412	268.229438	257.629526	-161.559519	182.824662	239.585666	-124.091043	426.636585	137.158846	-126.267529	343.223486	150.683009	-61.907056	431.410850	943.934923	-416.804968	506.192279	907.543203	-402.317448	527.297178	932.112356	-382.570491	557.319203	833.424848	-399.658508	592.645241	744.610550	-378.205329	586.785747	727.694560	-278.287286	253.091396	604.538155	-407.244628	268.172908	601.791530	-332.859263	169.684814	627.337227	-370.316855	269.710153	485.589998	-431.347177	504.050706	705.191421	-404.318026	432.790256	655.363608	-398.078917	344.628006	645.815801	-404.485849	441.748512	633.226736	-366.915816	349.482640	439.318610	-361.239509	-64.603020	853.213444	-240.112146	21.122605	83.966013	-442.093464	21.131569	83.925365	-43.933517	
1252	6.2600	703.166753	1264.376414	-30.167387	733.956422	1224.913961	-399.151167	718.525153	1336.053675	-220.094246	708.860286	1196.624789	-213.236862	609.204072	1055.011581	89.632400	647.325387	860.790516	-53.855684	572.254457	1065.633772	-563.642518	625.126523	862.176208	-437.584168	226.335691	1171.410400	-231.052710	368.392984	1154.147373	-371.796797	359.921903	1134.246381	-77.276362	395.035628	1086.718923	-350.352064	393.087079	1073.617490	-102.860874	261.650106	1191.607134	-166.638675	262.511058	1208.568617	-274.372067	298.035882	987.755227	-49.996531	328.476412	1039.956605	-422.188703	339.013236	858.904929	-51.986661	372.674933	779.581845	-65.900556	359.870880	692.072380	-78.797115	402.605403	785.034653	-86.238887	369.624459	602.318755	-111.028759	348.855577	582.089713	-206.406299	321.386063	512.639101	-77.330728	325.169275	423.705553	-88.966063	283.694270	346.508199	-87.892576	349.842942	421.039996	-119.950276	252.813445	249.856214	-87.660955	260.585487	256.601969	-161.283539	174.761803	239.868152	-123.936641	416.333314	133.187474	-127.264966	333.908913	148.448822	-61.815146	432.298855	946.764907	-415.848376	506.956799	911.842240	-402.206707	528.492702	936.823534	-382.020413	560.123792	838.599020	-398.955761	597.516567	750.491062	-377.837973	592.318677	733.104140	-277.749741	259.651076	606.312100	-406.909738	274.126750	603.930403	-332.557263	175.539250	627.442257	-370.258215	278.981832	488.118765	-431.418440	509.293567	710.158245	-403.816721	438.692392	659.460540	-397.619475	350.651524	648.895853	-404.077650	447.957423	637.491789	-366.733142	359.718741	443.850903	-361.399166	-64.640760	853.212810	-240.124505	21.107283	83.971812	-442.105176	21.115535	83.932057	-43.933306	
1253	6.2650	703.602450	1265.550706	-33.038140	733.483199	1225.315585	-402.262423	718.695161	1336.572001	-223.333765	709.241163	1197.405984	-216.319248	608.713590	1056.410298	87.247911	646.979112	860.458466	-54.125566	571.727867	1064.686047	-565.381162	625.081588	862.634531	-437.643812	226.572007	1171.005706	-228.016349	366.788624	1154.759560	-371.210056	362.176703	1132.649473	-77.137803	393.972696	1087.150036	-350.567795	394.437194	1072.176702	-103.701637	262.416402	1191.135320	-163.916696	261.986583	1208.463853	-271.723551	299.174290	986.727297	-48.294575	326.653258	1041.131425	-421.401171	337.017985	858.410752	-51.259241	369.004485	778.365493	-64.689857	354.403171	691.177745	-77.260888	399.161766	783.159399	-85.106960	363.383705	601.116413	-110.157291	342.424581	581.189933	-206.211078	314.744685	511.928100	-76.844614	318.044046	422.889059	-88.411596	276.164150	345.887516	-87.544040	342.931368	420.113712	-119.210941	244.999478	249.588940	-87.085180	252.708553	256.226558	-161.031069	167.383700	240.437865	-124.012162	406.536812	130.068868	-127.175142	324.267499	146.761850	-61.687952	432.943291	949.610712	-414.917312	509.460026	915.882645	-400.680235	529.372725	941.303643	-381.529881	562.280988	843.415142	-398.782260	601.884716	756.478535	-377.390786	598.059035	738.752373	-276.429301	266.297575	607.418264	-406.604681	281.103933	605.256032	-332.099240	181.414508	626.733224	-370.154022	288.351608	490.121305	-431.544389	514.374143	715.010098	-403.174921	444.468144	663.261897	-397.183262	356.547242	651.505750	-403.604646	454.093898	641.326501	-366.378454	370.157554	447.806713	-361.350909	-64.675184	853.199479	-240.105694	21.107563	83.963894	-442.088346	21.116037	83.920946	-43.938477	
